<svg xmlns="http://www.w3.org/2000/svg" viewBox="0 0 200 200" width="200" height="200">
  <defs>
    <linearGradient id="bg2" x1="0%" y1="0%" x2="100%" y2="100%">
      <stop offset="0%" style="stop-color:#1e293b"/>
      <stop offset="100%" style="stop-color:#0f172a"/>
    </linearGradient>
    <linearGradient id="accent2" x1="0%" y1="0%" x2="100%" y2="100%">
      <stop offset="0%" style="stop-color:#60a5fa"/>
      <stop offset="100%" style="stop-color:#2563eb"/>
    </linearGradient>
  </defs>
  <!-- 深色圆形背景 -->
  <circle cx="100" cy="100" r="100" fill="url(#bg2)"/>
  <!-- 终端窗口外框 -->
  <rect x="28" y="52" width="144" height="100" rx="10" fill="none" stroke="#334155" stroke-width="2"/>
  <!-- 标题栏 -->
  <rect x="28" y="52" width="144" height="24" rx="10" fill="#1e293b"/>
  <rect x="28" y="64" width="144" height="12" fill="#1e293b"/>
  <!-- 交通灯点 -->
  <circle cx="48" cy="64" r="5" fill="#ef4444"/>
  <circle cx="64" cy="64" r="5" fill="#f59e0b"/>
  <circle cx="80" cy="64" r="5" fill="#22c55e"/>
  <!-- 代码行 -->
  <rect x="42" y="90" width="20" height="6" rx="3" fill="url(#accent2)"/>
  <rect x="68" y="90" width="60" height="6" rx="3" fill="#475569"/>
  <rect x="42" y="106" width="14" height="6" rx="3" fill="#f59e0b"/>
  <rect x="62" y="106" width="76" height="6" rx="3" fill="#475569"/>
  <rect x="42" y="122" width="24" height="6" rx="3" fill="url(#accent2)"/>
  <rect x="72" y="122" width="44" height="6" rx="3" fill="#475569"/>
  <!-- 光标 -->
  <rect x="42" y="136" width="8" height="6" rx="1" fill="url(#accent2)" opacity="0.9"/>
</svg>
